<svg xmlns="http://www.w3.org/2000/svg" viewBox="0 0 128 128" role="img" aria-label="Waving hand">
  <defs>
    <linearGradient id="handGrad" x1="0" y1="0" x2="1" y2="1">
      <stop offset="0%" stop-color="#ffd7a3" />
      <stop offset="100%" stop-color="#ffb36b" />
    </linearGradient>
    <linearGradient id="bgGrad" x1="0" y1="0" x2="0" y2="1">
      <stop offset="0%" stop-color="#e7f3ff" />
      <stop offset="100%" stop-color="#d2e6ff" />
    </linearGradient>
  </defs>
  <rect x="8" y="8" width="112" height="112" rx="28" fill="url(#bgGrad)" />
  <path
    d="M82 36c0-6-4-10-9-10-4 0-8 3-9 7V28c0-6-4-10-9-10s-9 4-9 10v11c0-6-4-10-9-10s-9 4-9 10v26c0 19 14 34 32 34h6c19 0 34-15 34-34V36Z"
    fill="url(#handGrad)"
    stroke="#f1a25b"
    stroke-width="3"
    stroke-linecap="round"
    stroke-linejoin="round"
  />
  <path d="M93 48c6-2 11-7 13-13" fill="none" stroke="#2b6cb0" stroke-width="4" stroke-linecap="round" />
  <path d="M95 60c7 0 13-3 18-8" fill="none" stroke="#2b6cb0" stroke-width="4" stroke-linecap="round" />
  <circle cx="52" cy="80" r="4" fill="#d97631" />
  <circle cx="68" cy="80" r="4" fill="#d97631" />
  <path d="M52 90c5 4 15 4 20 0" fill="none" stroke="#d97631" stroke-width="3" stroke-linecap="round" />
</svg>
