<svg xmlns="http://www.w3.org/2000/svg" viewBox="0 0 128 128" role="img" aria-label="Smiling face asking how are you">
  <defs>
    <linearGradient id="bubbleGrad" x1="0" y1="0" x2="0" y2="1">
      <stop offset="0%" stop-color="#f2e8ff" />
      <stop offset="100%" stop-color="#e2d1ff" />
    </linearGradient>
    <linearGradient id="faceGrad" x1="0" y1="0" x2="1" y2="1">
      <stop offset="0%" stop-color="#fff2b3" />
      <stop offset="100%" stop-color="#ffd27a" />
    </linearGradient>
  </defs>
  <rect x="8" y="8" width="112" height="112" rx="28" fill="url(#bubbleGrad)" />
  <path d="M36 78c0-24 56-24 56 0v6c0 10-10 18-28 18s-28-8-28-18v-6Z" fill="url(#faceGrad)" stroke="#f4b04f" stroke-width="3" />
  <circle cx="52" cy="70" r="4" fill="#8a4a0a" />
  <circle cx="76" cy="70" r="4" fill="#8a4a0a" />
  <path d="M52 86c6 6 18 6 24 0" fill="none" stroke="#8a4a0a" stroke-width="3" stroke-linecap="round" />
  <path d="M24 40h54l12-10v10h14c6 0 10 4 10 10v10c0 6-4 10-10 10H24c-6 0-10-4-10-10V50c0-6 4-10 10-10Z" fill="#7c3aed" opacity="0.15" />
  <text x="32" y="63" font-family="'Arial', sans-serif" font-size="16" fill="#5b21b6">How are you?</text>
</svg>
