<svg xmlns="http://www.w3.org/2000/svg" viewBox="0 0 400 300">
  <defs>
    <linearGradient id="bg" x1="0%" y1="0%" x2="100%" y2="100%">
      <stop offset="0%" style="stop-color:#E8F5E9"/>
      <stop offset="100%" style="stop-color:#C8E6C9"/>
    </linearGradient>
  </defs>
  <rect width="400" height="300" rx="20" fill="url(#bg)"/>
  <!-- Gift box -->
  <rect x="55" y="125" width="85" height="75" rx="6" fill="#EF5350"/>
  <rect x="48" y="113" width="99" height="20" rx="5" fill="#C62828"/>
  <rect x="92" y="113" width="12" height="87" fill="#FFCDD2"/>
  <path d="M 72 113 Q 98 90 98 113" stroke="#FFCDD2" stroke-width="4" fill="none"/>
  <path d="M 124 113 Q 98 90 98 113" stroke="#FFCDD2" stroke-width="4" fill="none"/>
  <!-- Happy person receiving -->
  <circle cx="270" cy="100" r="40" fill="#FFCC80"/>
  <ellipse cx="256" cy="93" rx="4.5" ry="5.5" fill="#4E342E"/>
  <ellipse cx="284" cy="93" rx="4.5" ry="5.5" fill="#4E342E"/>
  <path d="M 256 115 Q 270 128 284 115" stroke="#4E342E" stroke-width="2.5" fill="none" stroke-linecap="round"/>
  <circle cx="246" cy="108" r="7" fill="#FFAB91" opacity="0.4"/>
  <circle cx="294" cy="108" r="7" fill="#FFAB91" opacity="0.4"/>
  <path d="M 230 92 Q 235 60 270 54 Q 305 60 310 92" fill="#5D4037"/>
  <rect x="250" y="140" width="40" height="55" rx="8" fill="#42A5F5"/>
  <!-- Hand reaching to gift -->
  <path d="M 248 162 L 155 162" stroke="#FFCC80" stroke-width="9" stroke-linecap="round"/>
  <!-- Hearts -->
  <path d="M 185 85 C 185 78 195 78 195 85 C 195 92 185 98 185 98 C 185 98 175 92 175 85 C 175 78 185 78 185 85" fill="#E91E63" opacity="0.5"/>
  <path d="M 210 70 C 210 65 217 65 217 70 C 217 75 210 79 210 79 C 210 79 203 75 203 70 C 203 65 210 65 210 70" fill="#E91E63" opacity="0.35"/>
  <!-- Speech bubble -->
  <rect x="268" y="28" width="118" height="52" rx="14" fill="white" stroke="#43A047" stroke-width="2"/>
  <polygon points="288,80 282,90 296,80" fill="white" stroke="#43A047" stroke-width="2"/>
  <polygon points="289,80 284,88 295,80" fill="white"/>
  <text x="327" y="50" text-anchor="middle" font-size="16" font-weight="bold" fill="#2E7D32">நன்றி!</text>
  <text x="327" y="70" text-anchor="middle" font-size="12" fill="#388E3C">(Thank You!)</text>
  <!-- Label -->
  <text x="200" y="260" text-anchor="middle" font-size="22" font-weight="bold" fill="#2E7D32">நன்றி — Thank You</text>
</svg>
