<svg xmlns="http://www.w3.org/2000/svg" viewBox="0 0 400 300">
  <defs>
    <linearGradient id="bg" x1="0%" y1="0%" x2="100%" y2="100%">
      <stop offset="0%" style="stop-color:#E8EAF6"/>
      <stop offset="100%" style="stop-color:#C5CAE9"/>
    </linearGradient>
  </defs>
  <rect width="400" height="300" rx="20" fill="url(#bg)"/>
  <!-- Big Letter D -->
  <circle cx="120" cy="120" r="65" fill="#283593" opacity="0.12"/>
  <text x="120" y="148" text-anchor="middle" font-size="100" font-weight="bold" fill="#283593">D</text>
  <!-- Dog illustration -->
  <!-- Dog body -->
  <ellipse cx="295" cy="155" rx="45" ry="35" fill="#8D6E63"/>
  <!-- Dog head -->
  <circle cx="295" cy="105" r="32" fill="#8D6E63"/>
  <!-- Ears (floppy) -->
  <ellipse cx="265" cy="90" rx="12" ry="22" fill="#6D4C41" transform="rotate(-15,265,90)"/>
  <ellipse cx="325" cy="90" rx="12" ry="22" fill="#6D4C41" transform="rotate(15,325,90)"/>
  <!-- Eyes -->
  <ellipse cx="282" cy="100" rx="5" ry="6" fill="#3E2723"/>
  <ellipse cx="308" cy="100" rx="5" ry="6" fill="#3E2723"/>
  <circle cx="281" cy="98" r="2" fill="white"/>
  <circle cx="307" cy="98" r="2" fill="white"/>
  <!-- Nose -->
  <ellipse cx="295" cy="115" rx="8" ry="6" fill="#3E2723"/>
  <circle cx="293" cy="113" r="2" fill="#5D4037"/>
  <!-- Mouth -->
  <path d="M 288 120 Q 295 128 302 120" stroke="#3E2723" stroke-width="2" fill="none" stroke-linecap="round"/>
  <!-- Tongue -->
  <ellipse cx="295" cy="128" rx="5" ry="7" fill="#EF5350"/>
  <!-- Tail (wagging) -->
  <path d="M 340 145 Q 365 125 358 100" stroke="#8D6E63" stroke-width="8" fill="none" stroke-linecap="round"/>
  <!-- Paws -->
  <ellipse cx="270" cy="188" rx="12" ry="7" fill="#8D6E63"/>
  <ellipse cx="320" cy="188" rx="12" ry="7" fill="#8D6E63"/>
  <!-- Wag lines -->
  <path d="M 365 95 L 372 88" stroke="#283593" stroke-width="2" opacity="0.3"/>
  <path d="M 370 105 L 378 102" stroke="#283593" stroke-width="2" opacity="0.3"/>
  <!-- Label -->
  <rect x="100" y="225" width="200" height="40" rx="12" fill="#283593" opacity="0.1"/>
  <text x="200" y="252" text-anchor="middle" font-size="24" font-weight="bold" fill="#283593">D for Dog 🐶</text>
</svg>
